<?xml version="1.0" encoding="UTF-8" standalone="no"?>
<!-- Created with Inkscape (http://www.inkscape.org/) -->

<svg
   xmlns:dc="http://purl.org/dc/elements/1.1/"
   xmlns:cc="http://creativecommons.org/ns#"
   xmlns:rdf="http://www.w3.org/1999/02/22-rdf-syntax-ns#"
   xmlns:svg="http://www.w3.org/2000/svg"
   xmlns="http://www.w3.org/2000/svg"
   xmlns:sodipodi="http://sodipodi.sourceforge.net/DTD/sodipodi-0.dtd"
   xmlns:inkscape="http://www.inkscape.org/namespaces/inkscape"
   width="16"
   height="16"
   viewBox="0 0 4.2333332 4.2333332"
   version="1.1"
   id="svg8"
   sodipodi:docname="drawing.svg"
   inkscape:version="0.92.5 (2060ec1f9f, 2020-04-08)">
  <defs
     id="defs2" />
  <sodipodi:namedview
     id="base"
     pagecolor="#ffffff"
     bordercolor="#666666"
     borderopacity="1.0"
     inkscape:pageopacity="0.0"
     inkscape:pageshadow="2"
     inkscape:zoom="5.6568543"
     inkscape:cx="-19.147379"
     inkscape:cy="16.470236"
     inkscape:document-units="mm"
     inkscape:current-layer="layer1"
     showgrid="false"
     units="px"
     inkscape:window-width="1860"
     inkscape:window-height="1028"
     inkscape:window-x="60"
     inkscape:window-y="27"
     inkscape:window-maximized="1" />
  <metadata
     id="metadata5">
    <rdf:RDF>
      <cc:Work
         rdf:about="">
        <dc:format>image/svg+xml</dc:format>
        <dc:type
           rdf:resource="http://purl.org/dc/dcmitype/StillImage" />
        <dc:title />
      </cc:Work>
    </rdf:RDF>
  </metadata>
  <g
     inkscape:label="Layer 1"
     inkscape:groupmode="layer"
     id="layer1"
     transform="translate(0,-292.76667)">
    <path
       style="fill:#fc9c9c;stroke-width:0.88315541"
       d="M 13.492188 0.087890625 L 13.492188 0.08984375 C 12.575701 0.090259498 11.832466 0.83158703 11.832031 1.7480469 C 11.832141 1.9574327 11.872079 2.1648427 11.949219 2.359375 L 10.896484 3.1816406 C 10.255265 2.5227178 9.3745049 2.1505796 8.4550781 2.1503906 C 7.1427695 2.151978 5.9473265 2.907104 5.3828125 4.0917969 L 4.2675781 3.65625 C 4.2717356 3.6173209 4.2730595 3.5779916 4.2734375 3.5390625 C 4.2738797 2.8039066 3.6785417 2.2075982 2.9433594 2.2070312 C 2.2074854 2.2065777 1.6108821 2.8031885 1.6113281 3.5390625 C 1.6118648 4.2742562 2.2081808 4.8695942 2.9433594 4.8691406 C 3.3743087 4.8684603 3.778164 4.6605056 4.0273438 4.3085938 L 5.1484375 4.7460938 C 5.0817288 5.0114166 5.0484246 5.2830784 5.046875 5.5566406 C 5.0472189 7.4384674 6.5732476 8.9635709 8.4550781 8.9628906 C 8.8263033 8.9619079 9.1935694 8.901061 9.5449219 8.78125 L 10.214844 10.117188 C 9.6992066 10.535014 9.3994504 11.162525 9.3984375 11.826172 C 9.3983791 11.977285 9.4161904 12.124751 9.4453125 12.267578 L 8.9628906 12.267578 L 8.9628906 13.150391 L 8.9628906 15.800781 L 9.8457031 15.800781 L 9.8457031 14.916016 L 10.728516 14.916016 L 10.728516 15.800781 L 11.611328 15.800781 L 11.611328 14.916016 C 11.610591 14.760677 11.568595 14.608896 11.490234 14.474609 C 11.568595 14.340436 11.610584 14.188277 11.611328 14.033203 L 11.611328 14.03125 C 12.825167 14.026471 13.809061 13.041017 13.808594 11.826172 C 13.808102 10.609353 12.820331 9.6235382 11.603516 9.6230469 C 11.335283 9.6233114 11.07088 9.6719561 10.820312 9.7675781 L 10.177734 8.4902344 C 11.218628 7.8795005 11.859529 6.7634816 11.861328 5.5566406 C 11.861116 4.9076202 11.675298 4.2717338 11.326172 3.7246094 L 12.335938 2.9375 C 12.645216 3.2398622 13.059738 3.4091358 13.492188 3.4101562 C 14.410091 3.4107232 15.154883 2.6659429 15.154297 1.7480469 C 15.153858 0.83086892 14.409369 0.087323696 13.492188 0.087890625 z M 4.5429688 12.259766 L 4.5429688 15.802734 L 5.2480469 15.802734 L 5.2480469 13.210938 L 5.9140625 15.121094 L 6.3867188 15.121094 L 7.0527344 13.210938 L 7.0527344 15.802734 L 7.7558594 15.802734 L 7.7558594 12.259766 L 6.8105469 12.259766 L 6.1484375 14.15625 L 5.4902344 12.259766 L 4.5429688 12.259766 z M 9.8457031 13.150391 L 10.728516 13.150391 L 10.728516 14.033203 L 9.8457031 14.033203 L 9.8457031 13.150391 z "
       transform="matrix(0.26458333,0,0,0.26458333,0,292.76667)"
       id="path2" />
  </g>
</svg>
